<svg width="168" height="36" viewBox="0 0 168 36" fill="none" xmlns="http://www.w3.org/2000/svg">
<g filter="url(#filter0_i)">
<path d="M29.3484 25.1562L33.9422 0.875H40.95L33.3797 35H26.3016L20.7469 12.1719L15.1922 35H8.11406L0.543747 0.875H7.55156L12.1687 25.1094L17.7937 0.875H23.7469L29.3484 25.1562ZM67.2656 26.0469C67.2656 24.7188 66.7969 23.7031 65.8594 23C64.9219 22.2812 63.2344 21.5312 60.7969 20.75C58.3594 19.9531 56.4297 19.1719 55.0078 18.4062C51.1328 16.3125 49.1953 13.4922 49.1953 9.94531C49.1953 8.10156 49.7109 6.46094 50.7422 5.02344C51.7891 3.57031 53.2812 2.4375 55.2187 1.625C57.1719 0.8125 59.3594 0.40625 61.7812 0.40625C64.2187 0.40625 66.3906 0.851562 68.2969 1.74219C70.2031 2.61719 71.6797 3.85937 72.7266 5.46875C73.7891 7.07812 74.3203 8.90625 74.3203 10.9531H67.2891C67.2891 9.39062 66.7969 8.17969 65.8125 7.32031C64.8281 6.44531 63.4453 6.00781 61.6641 6.00781C59.9453 6.00781 58.6094 6.375 57.6562 7.10938C56.7031 7.82812 56.2266 8.78125 56.2266 9.96875C56.2266 11.0781 56.7812 12.0078 57.8906 12.7578C59.0156 13.5078 60.6641 14.2109 62.8359 14.8672C66.8359 16.0703 69.75 17.5625 71.5781 19.3438C73.4062 21.125 74.3203 23.3438 74.3203 26C74.3203 28.9531 73.2031 31.2734 70.9687 32.9609C68.7344 34.6328 65.7266 35.4688 61.9453 35.4688C59.3203 35.4688 56.9297 34.9922 54.7734 34.0391C52.6172 33.0703 50.9687 31.75 49.8281 30.0781C48.7031 28.4062 48.1406 26.4688 48.1406 24.2656H55.1953C55.1953 28.0312 57.4453 29.9141 61.9453 29.9141C63.6172 29.9141 64.9219 29.5781 65.8594 28.9062C66.7969 28.2188 67.2656 27.2656 67.2656 26.0469Z" fill="#88D9F2"/>
<path d="M85.5422 35V0.875H94.9875C97.6281 0.875 100.019 1.5 102.159 2.75C104.3 4 105.98 5.75781 107.198 8.02344C108.417 10.2734 109.042 12.7969 109.073 15.5938V20.0234C109.073 22.8672 108.472 25.4297 107.269 27.7109C106.081 29.9922 104.417 31.7734 102.277 33.0547C100.136 34.3359 97.7453 34.9844 95.1047 35H85.5422ZM86.8078 2.14062V33.7344H94.9875C97.3781 33.7344 99.55 33.1562 101.503 32C103.472 30.8281 105.011 29.2031 106.12 27.125C107.23 25.0312 107.792 22.7109 107.808 20.1641V15.7812C107.808 13.2344 107.261 10.9219 106.167 8.84375C105.089 6.76562 103.573 5.14062 101.62 3.96875C99.6828 2.78125 97.5344 2.17187 95.175 2.14062H86.8078ZM135.323 18.0781H118.214V33.7344H137.714V35H116.948V0.875H137.714V2.14062H118.214V16.8125H135.323V18.0781ZM153.253 31.6719L153.933 33.7344L154.613 31.6719L166.073 0.875H167.456L154.706 35H153.159L140.409 0.875H141.792L153.253 31.6719Z" fill="black"/>
</g>
<defs>
<filter id="filter0_i" x="0.543747" y="0.40625" width="166.913" height="39.0625" filterUnits="userSpaceOnUse" color-interpolation-filters="sRGB">
<feFlood flood-opacity="0" result="BackgroundImageFix"/>
<feBlend mode="normal" in="SourceGraphic" in2="BackgroundImageFix" result="shape"/>
<feColorMatrix in="SourceAlpha" type="matrix" values="0 0 0 0 0 0 0 0 0 0 0 0 0 0 0 0 0 0 127 0" result="hardAlpha"/>
<feOffset dy="4"/>
<feGaussianBlur stdDeviation="2"/>
<feComposite in2="hardAlpha" operator="arithmetic" k2="-1" k3="1"/>
<feColorMatrix type="matrix" values="0 0 0 0 0 0 0 0 0 0 0 0 0 0 0 0 0 0 0.25 0"/>
<feBlend mode="normal" in2="shape" result="effect1_innerShadow"/>
</filter>
</defs>
</svg>
